<svg width="1024" height="1024" viewBox="0 0 1024 1024" fill="none" xmlns="http://www.w3.org/2000/svg">
  <defs>
    <linearGradient id="bg" x1="0" y1="0" x2="1024" y2="1024" gradientUnits="userSpaceOnUse">
      <stop offset="0%" stop-color="#1E2D54"/>
      <stop offset="50%" stop-color="#111C38"/>
      <stop offset="100%" stop-color="#080D1C"/>
    </linearGradient>
    <radialGradient id="glow" cx="512" cy="400" r="500" gradientUnits="userSpaceOnUse">
      <stop offset="0%" stop-color="#2E4A8A" stop-opacity="0.5"/>
      <stop offset="100%" stop-color="#080D1C" stop-opacity="0"/>
    </radialGradient>
    <linearGradient id="gloss" x1="0" y1="0" x2="0" y2="1024" gradientUnits="userSpaceOnUse">
      <stop offset="0%" stop-color="white" stop-opacity="0.07"/>
      <stop offset="45%" stop-color="white" stop-opacity="0"/>
    </linearGradient>
  </defs>

  <!-- Background -->
  <rect width="1024" height="1024" rx="220" fill="url(#bg)"/>
  <!-- Radial glow -->
  <rect width="1024" height="1024" rx="220" fill="url(#glow)"/>
  <!-- Top gloss -->
  <rect width="1024" height="1024" rx="220" fill="url(#gloss)"/>

  <!-- Logo paths (scaled and centered to fit 1024×1024, fill white) -->
  <g transform="translate(31, 106) scale(0.98)" fill="white">
    <path d="M0 0C51.81 0 103.62 0 157 0C161.668 5.83518 166.298 11.6346 170.75 17.625C171.789 19.017 172.828 20.4089 173.867 21.8008C174.388 22.499 174.908 23.1972 175.444 23.9165C176.94 25.9202 178.442 27.9199 179.945 29.918C188.308 41.0315 196.553 52.23 204.791 63.4365C212.374 73.7498 219.994 84.032 227.692 94.2598C229.55 96.7317 231.399 99.2103 233.25 101.688C236.066 105.448 238.906 109.188 241.762 112.918C248.165 121.284 254.552 129.643 260.629 138.25C264.636 143.923 268.815 149.458 273 155C273.96 156.282 274.92 157.565 275.879 158.848C280.629 165.201 285.396 171.538 290.25 177.812C293.102 181.5 295.904 185.215 298.625 189C302.525 194.41 306.572 199.703 310.625 205C316.419 212.577 322.134 220.206 327.775 227.898C333.863 236.192 340.042 244.416 346.225 252.638C348.944 256.256 351.66 259.878 354.375 263.5C355.352 264.802 356.328 266.104 357.305 267.406C362.102 273.802 366.898 280.198 371.695 286.594C372.171 287.228 372.647 287.862 373.137 288.516C374.136 289.848 375.135 291.181 376.135 292.513C378.992 296.325 381.852 300.134 384.715 303.941C391.714 313.254 398.666 322.597 405.539 332.003C414.112 343.719 422.745 355.39 431.492 366.977C435.419 372.19 439.276 377.454 443.13 382.722C445.403 385.828 447.681 388.928 450 392C454.067 390.644 454.8 388.587 457.062 385C460.798 379.101 460.798 379.101 463 378C463.789 376.694 464.518 375.353 465.215 373.996C467.915 368.996 471.126 364.577 474.562 360.062C480.894 351.613 486.827 342.958 492.605 334.124C495.049 330.402 497.526 326.702 500 323C500.99 323.66 501.98 324.32 503 325C503.325 328.125 503.452 331.056 503.455 334.186C503.467 335.15 503.48 336.115 503.493 337.108C503.531 340.36 503.547 343.612 503.563 346.865C503.585 349.189 503.608 351.513 503.632 353.837C503.706 361.494 503.747 369.151 503.785 376.809C503.8 379.446 503.815 382.084 503.83 384.721C503.89 395.703 503.942 406.684 503.972 417.665C503.98 420.516 503.987 423.368 503.995 426.219C503.997 426.928 503.999 427.636 504.001 428.366C504.035 439.809 504.126 451.251 504.243 462.694C504.361 474.461 504.426 486.227 504.439 497.995C504.448 504.594 504.482 511.192 504.572 517.79C504.656 524.014 504.672 530.234 504.638 536.458C504.637 538.728 504.66 540.999 504.709 543.269C505.042 559.526 501.554 568.714 490.775 580.916C487.906 584.285 485.435 587.915 482.938 591.562C481.964 592.953 480.989 594.342 480.012 595.73C479.524 596.424 479.036 597.118 478.533 597.833C474.222 603.927 469.827 609.962 465.444 616.004C464.137 617.811 462.838 619.622 461.543 621.438C460.848 622.407 460.153 623.376 459.438 624.375C458.569 625.593 458.569 625.593 457.684 626.836C455.938 629.079 454.05 631.035 452 633C448.906 631.669 447.288 630.432 445.406 627.648C444.939 626.969 444.472 626.29 443.99 625.591C443.498 624.86 443.007 624.128 442.5 623.375C441.44 621.835 440.377 620.295 439.312 618.758C438.769 617.971 438.225 617.183 437.664 616.372C435.022 612.605 432.269 608.924 429.5 605.25C429.008 604.596 428.516 603.941 428.01 603.267C425.945 600.531 423.874 597.851 421.656 595.234C420 593 420 593 420 590C419.01 589.67 418.02 589.34 417 589C415.134 586.746 413.4 584.492 411.688 582.125C410.902 581.058 410.902 581.058 410.101 579.97C408.976 578.441 407.854 576.909 406.735 575.375C405.018 573.024 403.288 570.683 401.555 568.344C394.994 559.484 388.497 550.579 382.086 541.61C381.578 540.902 381.07 540.194 380.547 539.465C380.102 538.842 379.657 538.219 379.198 537.578C377.948 535.858 377.948 535.858 376 534C376 533.01 376 532.02 376 531C375.34 531 374.68 531 374 531C372.33 528.931 370.783 526.855 369.25 524.688C368.256 523.307 367.261 521.927 366.266 520.547C365.736 519.809 365.207 519.071 364.662 518.311C361.801 514.333 358.903 510.384 356 506.438C355.413 505.638 354.826 504.838 354.221 504.014C350.057 498.368 345.788 492.817 341.375 487.363C339.693 485.266 338.143 483.29 336.953 480.871C335.71 478.431 333.952 476.912 332 475C330.739 473.358 329.511 471.689 328.312 470C325.524 466.109 322.701 462.255 319.812 458.438C315.99 453.363 312.268 448.223 308.562 443.062C304.684 437.665 300.763 432.313 296.688 427.062C284.994 411.984 284.994 411.984 281.75 406.062C280.057 403.1 278.426 401.354 276 399C269.316 391.053 269.316 391.053 269 386C268.01 386 267.02 386 266 386C265.01 383.69 264.02 381.38 263 379C262.34 379 261.68 379 261 379C259.502 377.007 258.115 375.018 256.75 372.938C254.17 369.087 251.614 365.385 248.5 361.938C246.085 359.1 245.814 358.336 245 355C243.867 353.834 242.727 352.673 241.543 351.559C239.608 349.604 237.904 347.523 236.188 345.375C235.583 344.62 234.978 343.864 234.355 343.086C233 341 233 341 233 338C232.407 337.763 231.814 337.526 231.203 337.281C228.519 335.72 227.422 334.1 225.75 331.5C225.229 330.706 224.708 329.912 224.172 329.094C223 327 223 327 223 325C222.34 325 221.68 325 221 325C221 324.01 221 323.02 221 322C220.01 321.67 219.02 321.34 218 321C216.438 319.222 216.438 319.222 214.785 316.922C214.181 316.09 213.577 315.259 212.955 314.402C212.331 313.527 211.706 312.652 211.062 311.75C209.825 310.036 208.587 308.322 207.348 306.609C206.769 305.803 206.19 304.997 205.594 304.166C204.311 302.423 202.947 300.739 201.559 299.078C200 297 200 297 200 294C199.01 293.67 198.02 293.34 197 293C195.574 291.389 195.574 291.389 194.117 289.324C193.59 288.578 193.063 287.833 192.52 287.064C191.977 286.28 191.434 285.496 190.875 284.688C190.325 283.915 189.774 283.142 189.207 282.346C185.105 276.486 185.105 276.486 184.524 273.808C184.351 273.211 184.178 272.615 184 272C183.01 271.67 182.02 271.34 181 271C179.449 269.164 179.449 269.164 177.688 266.625C176.997 265.647 176.306 264.668 175.594 263.66C175.195 263.094 174.797 262.529 174.387 261.946C171.538 257.948 168.605 254.011 165.688 250.062C164.771 248.819 164.771 248.819 163.837 247.551C160.623 243.17 160.623 243.17 157.308 238.865C156 237 156 237 156 235C155.34 235 154.68 235 154 235C154.001 236.186 154.002 237.372 154.002 238.594C154.036 290.837 154.066 343.081 154.085 395.325C154.085 396.115 154.085 396.906 154.086 397.72C154.092 414.897 154.097 432.074 154.102 449.251C154.105 457.674 154.107 466.097 154.11 474.52C154.11 475.358 154.11 476.197 154.111 477.06C154.119 504.249 154.134 531.437 154.153 558.626C154.171 586.556 154.184 614.487 154.188 642.417C154.188 646.359 154.189 650.3 154.19 654.241C154.19 655.405 154.19 655.405 154.19 656.592C154.193 669.099 154.202 681.607 154.214 694.115C154.225 706.677 154.23 719.239 154.227 731.801C154.226 738.612 154.227 745.423 154.238 752.235C154.248 758.462 154.249 764.688 154.242 770.915C154.241 773.176 154.244 775.438 154.25 777.699C154.258 780.756 154.254 783.812 154.246 786.87C154.251 787.762 154.257 788.654 154.262 789.573C154.228 795.658 154.228 795.658 152 799C149.417 799.372 149.417 799.372 146.078 799.367C144.816 799.373 143.554 799.379 142.254 799.384C140.848 799.375 139.441 799.366 138.035 799.356C136.56 799.357 135.085 799.359 133.611 799.363C129.598 799.368 125.586 799.354 121.574 799.337C117.381 799.322 113.189 799.323 108.996 799.322C101.955 799.319 94.9135 799.304 87.8721 799.281C78.8258 799.252 69.7796 799.242 60.7334 799.238C52.9672 799.234 45.201 799.221 37.4348 799.207C34.9331 799.203 32.4314 799.2 29.9297 799.197C26.0031 799.193 22.0765 799.182 18.1498 799.168C16.7058 799.163 15.2618 799.161 13.8178 799.16C11.8524 799.158 9.88701 799.149 7.92163 799.14C6.81992 799.137 5.71821 799.134 4.58311 799.131C2 799 2 799 0 798C0 534.66 0 271.32 0 0Z"/>
    <path d="M757.358 -0.133705C758.22 -0.135971 759.083 -0.138237 759.972 -0.140571C762.874 -0.14692 765.776 -0.146081 768.678 -0.145256C770.754 -0.148247 772.83 -0.15165 774.906 -0.155434C780.552 -0.164284 786.199 -0.166612 791.845 -0.16725C796.553 -0.168198 801.26 -0.171875 805.967 -0.175422C817.066 -0.18357 828.166 -0.186006 839.265 -0.185295C850.734 -0.184694 862.202 -0.195257 873.67 -0.211039C883.502 -0.22409 893.335 -0.22948 903.168 -0.22884C909.047 -0.228584 914.925 -0.231471 920.804 -0.242018C926.329 -0.251659 931.853 -0.251806 937.378 -0.244501C939.411 -0.243451 941.443 -0.245847 943.476 -0.251862C946.24 -0.259516 949.005 -0.254981 951.769 -0.247231C952.582 -0.252374 953.396 -0.257518 954.233 -0.262817C959.772 -0.228264 959.772 -0.228264 962 2.00001C962.249 4.63048 962.249 4.63048 962.247 8.03744C962.251 9.32559 962.256 10.6137 962.26 11.9409C962.254 13.3771 962.249 14.8132 962.243 16.2493C962.244 17.7556 962.246 19.2618 962.249 20.7681C962.254 24.87 962.246 28.9718 962.236 33.0737C962.227 37.3718 962.229 41.6699 962.229 45.9679C962.228 53.1986 962.219 60.4293 962.206 67.6599C962.19 75.994 962.185 84.3279 962.186 92.662C962.186 101.553 962.179 110.443 962.17 119.334C962.168 121.883 962.167 124.432 962.167 126.981C962.166 131.012 962.16 135.043 962.15 139.074C962.147 140.544 962.146 142.014 962.146 143.484C962.152 168.97 962.152 168.97 959 175C955.85 176.05 953.649 176.126 950.342 176.129C949.157 176.132 947.971 176.135 946.749 176.138C945.44 176.137 944.132 176.135 942.783 176.134C941.383 176.136 939.984 176.138 938.585 176.141C934.73 176.147 930.876 176.147 927.021 176.145C922.868 176.145 918.714 176.151 914.561 176.155C906.421 176.164 898.281 176.166 890.142 176.167C883.529 176.168 876.916 176.17 870.304 176.173C851.572 176.182 832.84 176.186 814.109 176.185C813.098 176.185 812.088 176.185 811.047 176.185C810.036 176.185 809.024 176.185 807.982 176.185C791.574 176.185 775.167 176.194 758.76 176.208C741.929 176.223 725.099 176.23 708.268 176.229C698.813 176.229 689.357 176.231 679.901 176.242C671.853 176.251 663.805 176.253 655.757 176.247C651.647 176.243 647.538 176.243 643.428 176.252C639.671 176.26 635.914 176.258 632.157 176.25C630.144 176.247 628.13 176.255 626.117 176.263C624.934 176.258 623.751 176.254 622.532 176.249C621.505 176.249 620.477 176.249 619.419 176.25C617 176 617 176 615 174C615.231 169.899 618.037 166.89 620.438 163.75C620.845 163.196 621.253 162.641 621.674 162.07C622.73 160.672 623.86 159.33 625 158C625.66 158 626.32 158 627 158C627.24 157.295 627.48 156.59 627.727 155.863C629.212 152.523 631.102 150.052 633.375 147.188C634.28 146.036 635.183 144.884 636.086 143.73C636.799 142.822 636.799 142.822 637.526 141.896C640.063 138.632 642.529 135.314 645 132C649.567 125.887 654.197 119.828 658.871 113.797C660.647 111.464 662.342 109.105 664 106.688C664.66 105.801 665.32 104.914 666 104C666.66 104 667.32 104 668 104C668.272 103.421 668.544 102.843 668.825 102.247C669.996 100.008 671.299 98.0808 672.801 96.0508C673.359 95.294 673.917 94.5373 674.492 93.7576C675.393 92.5473 675.393 92.5473 676.312 91.3125C676.938 90.4689 677.563 89.6253 678.207 88.7561C687.242 76.5965 696.506 64.6183 705.827 52.6775C710.244 47.0061 714.567 41.2697 718.861 35.5049C722.303 30.8955 725.84 26.3759 729.477 21.918C731.147 19.8691 731.147 19.8691 733 17C733.99 17 734.98 17 736 17C736.094 16.2743 736.188 15.5485 736.285 14.8008C737.11 11.5694 738.367 9.78369 740.438 7.18751C741.055 6.39731 741.672 5.60712 742.309 4.79298C742.867 4.2013 743.425 3.60962 744 3.00001C744.66 3.00001 745.32 3.00001 746 3.00001C746 2.34001 746 1.68001 746 1.00001C749.812 -0.270555 753.386 -0.14129 757.358 -0.133705Z"/>
    <path d="M829 597C831.494 598.204 833.681 599.454 836 601C836 601.66 836 602.32 836 603C836.99 603.495 836.99 603.495 838 604C840.596 606.208 843.068 608.554 845.562 610.875C846.61 611.832 846.61 611.832 847.678 612.809C848.342 613.426 849.007 614.044 849.691 614.68C850.302 615.244 850.912 615.809 851.541 616.39C853 618 853 618 854 621C855.326 621.681 856.66 622.346 858 623C859.676 624.734 859.676 624.734 861.312 626.75C863.566 629.422 865.795 631.787 868.5 634C871.836 636.739 874.519 639.832 877.305 643.117C878.846 644.829 880.392 646.253 882.188 647.688C884.918 649.933 886.971 652.113 889 655C889 655.66 889 656.32 889 657C889.99 657.33 890.98 657.66 892 658C893.261 659.487 894.519 660.978 895.727 662.508C897.274 664.321 899.091 665.586 901 667C901 667.66 901 668.32 901 669C901.791 669.315 901.791 669.315 902.598 669.637C905.993 671.563 908.611 674.141 911.438 676.812C911.998 677.334 912.558 677.855 913.135 678.393C921.97 686.651 921.97 686.651 924.812 690.375C927.353 693.423 930.179 695.883 933.195 698.449C935 700 935 700 937 702C936.897 706.928 933.979 709.744 930.75 713.125C930.272 713.65 929.794 714.174 929.301 714.715C926.434 717.783 923.601 719.894 920 722C918.64 723.982 917.302 725.98 916 728C915.34 728 914.68 728 914 728C913.728 728.587 913.456 729.173 913.176 729.777C912.02 731.962 910.782 733.681 909.188 735.562C908.707 736.141 908.226 736.72 907.73 737.316C906 739 906 739 903.555 740.438C900.766 742.143 899.046 743.952 896.938 746.438C893.54 750.413 890.373 754.085 886 757C885.381 757.969 884.762 758.939 884.125 759.938C881.933 763.097 880.296 764.178 877 766C876.34 766.99 875.68 767.98 875 769C874.01 769.66 873.02 770.32 872 771C871.052 772.056 870.138 773.143 869.25 774.25C866.58 777.462 863.697 780.063 860.418 782.641C858.723 784.054 858.723 784.054 858 787C856.512 788.211 856.512 788.211 854.688 789.375C850.872 791.968 848.084 794.831 846 799C845.34 799 844.68 799 844 799C843.773 799.619 843.546 800.238 843.312 800.875C842 803 842 803 839.5 803.938C836.765 804.766 836.765 804.766 835.875 807.5C835.586 808.325 835.298 809.15 835 810C832 812 832 812 830 811.875C827.356 810.718 826.636 809.392 825 807C821.672 802.753 818.762 799.661 814 797C814 796.34 814 795.68 814 795C813.132 794.623 813.132 794.623 812.246 794.238C809.717 792.844 808.066 791.262 806.062 789.188C805.363 788.469 804.663 787.751 803.941 787.012C803.301 786.348 802.66 785.684 802 785C801.175 784.175 800.35 783.35 799.5 782.5C798.675 781.675 797.85 780.85 797 780C796.336 779.359 795.672 778.719 794.988 778.059C794.27 777.359 793.552 776.659 792.812 775.938C791.801 774.961 791.801 774.961 790.77 773.965C789.041 772.046 788.129 770.297 787 768C785.349 766.974 783.68 765.977 782 765C777.382 760.811 777.382 760.811 776 757.875C774.597 755.245 772.54 754.487 770 753C768.98 751.682 767.98 750.348 767 749C765.336 747.663 763.669 746.331 762 745C758.697 741.908 755.513 738.698 752.312 735.5C751.012 734.218 751.012 734.218 749.686 732.91C748.443 731.671 748.443 731.671 747.176 730.406C746.422 729.657 745.668 728.907 744.892 728.135C743.119 726.135 742.165 724.372 741 722C739.627 721.096 738.251 720.197 736.855 719.328C731.669 715.616 725.363 710.457 724 704C725.89 697.672 731.264 693.406 735.875 688.938C737.08 687.753 737.08 687.753 738.309 686.545C739.856 685.024 741.408 683.506 742.962 681.992C744.606 680.385 746.233 678.765 747.848 677.129C749.691 675.306 751.563 673.646 753.562 672C757.804 668.332 761.513 664.271 765.28 660.131C768.915 656.146 772.628 652.256 776.438 648.438C777.163 647.705 777.163 647.705 777.903 646.958C780.065 644.805 782.248 642.803 784.637 640.902C786.862 639.111 788.565 637.323 790.375 635.125C792.609 632.504 794.838 630.185 797.5 628C800.793 625.288 803.481 622.259 806.242 619.016C809.003 615.85 811.999 612.936 815 610C815.866 609.134 816.732 608.267 817.625 607.375C818.801 606.199 818.801 606.199 820 605C820.846 604.134 821.691 603.267 822.562 602.375C824.621 600.369 826.655 598.65 829 597Z"/>
    <path d="M710.398 435.748C711.277 435.743 712.157 435.738 713.062 435.733C714.024 435.737 714.986 435.741 715.976 435.746C717.001 435.743 718.026 435.74 719.082 435.737C722.527 435.729 725.971 435.735 729.416 435.741C731.881 435.739 734.346 435.735 736.812 435.731C742.819 435.722 748.827 435.724 754.835 435.729C759.717 435.734 764.6 435.735 769.482 435.732C770.177 435.732 770.872 435.732 771.587 435.731C772.999 435.731 774.41 435.73 775.821 435.73C789.057 435.724 802.293 435.73 815.53 435.741C826.888 435.75 838.246 435.748 849.604 435.739C862.791 435.729 875.978 435.724 889.165 435.73C890.571 435.731 891.977 435.732 893.384 435.732C894.422 435.733 894.422 435.733 895.48 435.733C900.357 435.735 905.233 435.732 910.109 435.727C916.673 435.721 923.237 435.726 929.801 435.737C932.213 435.74 934.625 435.739 937.037 435.735C940.323 435.729 943.61 435.736 946.897 435.746C947.856 435.742 948.815 435.737 949.804 435.733C954.306 435.759 957.917 435.849 962 438C962.093 448.475 962.164 458.949 962.207 469.424C962.228 474.288 962.256 479.152 962.302 484.016C962.345 488.71 962.369 493.404 962.38 498.099C962.387 499.889 962.401 501.68 962.423 503.47C962.452 505.98 962.456 508.488 962.454 510.997C962.468 511.736 962.483 512.476 962.498 513.238C962.472 516.486 962.105 518.797 960.607 521.692C956.627 525.215 952.95 524.677 947.8 524.601C946.751 524.606 945.703 524.61 944.622 524.614C941.096 524.622 937.572 524.595 934.046 524.568C931.523 524.566 929 524.567 926.478 524.57C921.041 524.571 915.604 524.557 910.167 524.529C902.306 524.488 894.445 524.475 886.584 524.469C873.83 524.458 861.077 524.424 848.323 524.377C835.934 524.331 823.545 524.296 811.155 524.275C810.01 524.273 810.01 524.273 808.841 524.271C805.01 524.264 801.18 524.258 797.349 524.252C765.566 524.2 733.783 524.108 702 524C702 495.62 702 467.24 702 438C705.63 436.185 706.647 435.75 710.398 435.748Z"/>
    <path d="M713.723 260.748C715.036 260.741 715.036 260.741 716.376 260.733C717.318 260.737 718.26 260.741 719.23 260.746C720.754 260.741 720.754 260.741 722.308 260.737C725.705 260.729 729.101 260.735 732.497 260.741C734.935 260.739 737.373 260.735 739.81 260.731C745.739 260.722 751.668 260.724 757.596 260.729C762.414 260.734 767.232 260.735 772.05 260.732C773.079 260.732 773.079 260.732 774.129 260.731C775.523 260.731 776.917 260.73 778.311 260.73C791.373 260.724 804.435 260.73 817.498 260.741C828.707 260.75 839.916 260.748 851.126 260.739C864.147 260.729 877.167 260.724 890.188 260.73C891.576 260.731 892.964 260.732 894.352 260.732C895.376 260.733 895.376 260.733 896.421 260.733C901.235 260.735 906.049 260.732 910.862 260.727C917.338 260.721 923.813 260.726 930.288 260.737C932.668 260.74 935.048 260.739 937.428 260.735C940.669 260.729 943.91 260.736 947.151 260.746C948.1 260.742 949.048 260.737 950.025 260.733C950.893 260.738 951.76 260.743 952.654 260.748C953.776 260.749 953.776 260.749 954.921 260.749C957.298 261.036 958.932 261.822 961 263C962.125 280.744 962.116 298.504 961.914 316.276C961.888 318.804 961.871 321.332 961.862 323.86C961.847 327.461 961.799 331.06 961.742 334.66C961.743 335.759 961.744 336.858 961.744 337.99C961.576 345.434 961.576 345.434 958.792 348.166C949.526 350.933 939.208 350.156 929.625 350.125C927.778 350.131 927.778 350.131 925.895 350.137C924.11 350.135 924.11 350.135 922.289 350.133C921.224 350.132 920.159 350.131 919.061 350.129C916 350 916 350 913.217 349.5C909.91 348.986 906.813 348.874 903.468 348.873C902.172 348.87 900.875 348.867 899.539 348.864C898.114 348.866 896.69 348.868 895.265 348.871C893.755 348.869 892.245 348.867 890.735 348.865C886.641 348.861 882.548 348.863 878.455 348.866C874.161 348.868 869.868 348.866 865.574 348.864C858.359 348.862 851.144 348.865 843.928 348.87C835.608 348.875 827.287 348.873 818.967 348.868C811.808 348.863 804.65 348.863 797.491 348.865C793.222 348.867 788.954 348.867 784.685 348.864C780.666 348.861 776.646 348.863 772.627 348.869C771.159 348.87 769.691 348.87 768.224 348.867C760.903 348.857 753.684 348.971 746.403 349.774C741.215 350.262 735.973 350.658 731 349C729.515 349.495 729.515 349.495 728 350C727.01 350 726.02 350 725 350C723.564 350.023 722.128 350.046 720.691 350.07C718.982 350.089 717.272 350.107 715.562 350.125C714.703 350.142 713.844 350.159 712.959 350.176C711.713 350.185 711.713 350.185 710.441 350.195C709.685 350.206 708.929 350.216 708.151 350.227C706 350 706 350 702 348C702 319.95 702 291.9 702 263C709.875 260.75 709.875 260.75 713.723 260.748Z"/>
    <path d="M576.492 260.839C577.17 260.834 577.848 260.829 578.546 260.824C580.799 260.809 583.052 260.802 585.305 260.797C586.865 260.791 588.426 260.785 589.987 260.78C593.264 260.769 596.541 260.763 599.818 260.76C604.02 260.754 608.222 260.73 612.425 260.702C615.65 260.683 618.876 260.678 622.102 260.676C623.651 260.673 625.2 260.665 626.75 260.652C628.917 260.635 631.083 260.637 633.249 260.644C635.1 260.638 635.1 260.638 636.988 260.633C640 261 640 261 641.895 262.376C643.463 264.681 643.434 266.426 643.512 269.203C643.547 270.307 643.583 271.41 643.62 272.547C643.642 273.769 643.664 274.991 643.687 276.25C643.719 277.529 643.751 278.808 643.784 280.125C643.89 284.75 643.948 289.375 644 294C644.011 294.952 644.022 295.905 644.033 296.886C644.102 303.196 644.149 309.506 644.174 315.817C644.183 317.934 644.195 320.051 644.209 322.169C644.227 325.175 644.231 328.181 644.23 331.188C644.238 332.09 644.245 332.992 644.252 333.921C644.219 343.155 644.219 343.155 642 347C635.156 350.876 627.965 350.436 620.27 350.398C618.961 350.401 617.652 350.404 616.304 350.407C613.548 350.412 610.792 350.405 608.036 350.391C604.512 350.374 600.989 350.384 597.465 350.402C594.087 350.415 590.71 350.406 587.332 350.398C586.07 350.405 584.809 350.411 583.509 350.417C582.334 350.407 581.159 350.398 579.948 350.388C578.918 350.386 577.887 350.383 576.825 350.381C573.354 349.913 571.601 349.383 569 347C568.507 344.097 568.356 341.777 568.416 338.873C568.414 338.045 568.412 337.217 568.409 336.364C568.408 333.625 568.442 330.887 568.477 328.148C568.483 326.249 568.488 324.35 568.491 322.451C568.501 318.472 568.528 314.492 568.568 310.513C568.619 305.4 568.644 300.288 568.659 295.175C568.674 290.312 568.699 285.449 568.727 280.586C568.731 279.652 568.736 278.718 568.741 277.756C568.758 275.127 568.781 272.498 568.807 269.869C568.811 269.082 568.816 268.296 568.82 267.485C568.904 260.526 569.697 260.877 576.492 260.839Z"/>
    <path d="M577.513 435.694C578.182 435.685 578.85 435.677 579.539 435.668C581.754 435.644 583.969 435.635 586.184 435.629C587.721 435.62 589.257 435.611 590.794 435.602C594.018 435.585 597.242 435.577 600.466 435.574C604.6 435.569 608.734 435.531 612.868 435.486C616.043 435.456 619.218 435.449 622.393 435.448C623.917 435.444 625.441 435.431 626.965 435.41C629.097 435.383 631.226 435.388 633.357 435.401C634.57 435.396 635.783 435.39 637.033 435.385C640 436 640 436 641.853 438.287C643.89 443.105 644.131 447.176 644.069 452.383C644.062 453.489 644.062 453.489 644.055 454.616C644.037 457.048 644.011 459.479 643.984 461.91C643.968 463.601 643.951 465.292 643.934 466.983C643.898 470.525 643.857 474.066 643.813 477.608C643.758 482.149 643.721 486.691 643.689 491.233C643.661 494.724 643.62 498.215 643.576 501.705C643.557 503.38 643.542 505.055 643.533 506.73C643.519 509.069 643.486 511.407 643.448 513.746C643.448 514.787 643.448 514.787 643.448 515.848C643.386 518.68 643.286 520.584 641.659 522.953C640 524 640 524 637 524C635.021 524.02 633.042 524.041 631.063 524.063C624.98 524.128 618.897 524.174 612.813 524.207C609.134 524.228 605.456 524.256 601.777 524.302C598.214 524.345 594.651 524.369 591.088 524.379C589.077 524.39 587.066 524.422 585.056 524.453C583.825 524.453 582.593 524.454 581.325 524.454C580.246 524.463 579.167 524.472 578.055 524.481C574.031 523.847 571.986 522.782 569 520C568.4 517.076 568.215 514.971 568.287 512.05C568.283 511.253 568.279 510.456 568.275 509.635C568.269 507.003 568.306 504.374 568.344 501.742C568.35 499.914 568.354 498.086 568.355 496.258C568.364 492.43 568.393 488.602 568.437 484.774C568.494 479.86 568.516 474.946 568.525 470.031C568.533 466.259 568.553 462.486 568.577 458.713C568.588 456.9 568.598 455.088 568.605 453.275C568.619 450.747 568.646 448.219 568.678 445.691C568.68 444.938 568.682 444.184 568.684 443.408C568.803 436.272 570.727 435.753 577.513 435.694Z"/>
  </g>
</svg>
